<svg width="94" height="82" viewBox="0 0 94 82" fill="none" xmlns="http://www.w3.org/2000/svg">
<path fill-rule="evenodd" clip-rule="evenodd" d="M94 0L0 82H71C83.7026 82 94 71.7026 94 59V0ZM43 55.48C43 55.8 43.1616 56.28 43.4846 56.6L43.8077 57.08L56.4077 70.52C56.7308 70.84 57.0538 71 57.5385 71C58.0231 71 58.3461 70.84 58.6693 70.52L84.5154 43.96C85.1616 43.32 85.1616 42.36 84.5154 41.72L82.2538 39.48C81.6077 38.84 80.6385 38.84 79.9923 39.48H79.8307L58.1846 61.72C57.8615 62.04 57.377 62.04 57.0538 61.72L48.1693 52.28L48.0077 52.12C47.3615 51.48 46.3923 51.48 45.7462 52.12L43.4846 54.36C43.1616 54.68 43 55.16 43 55.48Z" fill="#26E55C"/>
</svg>
